<?xml version="1.0" encoding="utf-8"?>
<!-- Generator: Adobe Illustrator 19.0.0, SVG Export Plug-In . SVG Version: 6.00 Build 0)  -->
<svg version="1.1" id="Calque_1" xmlns="http://www.w3.org/2000/svg" xmlns:xlink="http://www.w3.org/1999/xlink" x="0px" y="0px"
	 viewBox="-446 260.2 65.3 41.8" style="enable-background:new -446 260.2 65.3 41.8;" xml:space="preserve">
<style type="text/css">
	.st0{fill:#FFFFFF;}
</style>
<g>
	<path class="st0" d="M-440,293.4c-3,0-5.4-2.5-5.4-5.4c0-3,2.4-5.4,5.4-5.4c1.5,0,2.8,0.6,3.8,1.6l-0.7,0.6c-0.8-0.9-2-1.3-3.1-1.3
		c-2.4,0-4.4,2.1-4.4,4.6c0,2.5,2,4.6,4.4,4.6c1.1,0,2.1-0.4,2.9-1.1v-3.1h-1.1v-0.9h2v4.3C-437.2,292.8-438.5,293.4-440,293.4z
		 M-430.7,293.4c-2.1,0-3.8-1.7-3.8-3.8c0-2.1,1.7-3.8,3.8-3.8c2.1,0,3.8,1.7,3.8,3.8C-426.9,291.7-428.6,293.4-430.7,293.4z
		 M-430.7,286.7c-1.6,0-2.8,1.3-2.8,2.9s1.3,2.9,2.8,2.9s2.8-1.3,2.8-2.9C-427.8,288.1-429.1,286.7-430.7,286.7z M-421,293.3
		c0-0.3-0.4-0.8-1.3-1.2l-1.9-1.1c-1-0.6-1.6-1.3-1.6-2.5c0-1.4,1.2-2.6,2.8-2.6c1.5,0,2.8,1.2,2.8,2.8h-0.9c0-1.1-0.8-1.9-1.8-1.9
		c-1,0-1.8,0.8-1.8,1.7c0,0.8,0.3,1.2,1.1,1.7l2.1,1.2c1.2,0.7,1.6,1.5,1.6,2H-421z M-414.2,293.3c0-0.3-0.4-0.8-1.3-1.2l-1.9-1.1
		c-1-0.6-1.6-1.3-1.6-2.5c0-1.4,1.2-2.6,2.8-2.6s2.8,1.2,2.8,2.8h-0.9c0-1.1-0.8-1.9-1.8-1.9c-1,0-1.8,0.8-1.8,1.7
		c0,0.8,0.3,1.2,1.1,1.7l2.1,1.2c1.2,0.7,1.6,1.5,1.6,2C-413.3,293.3-414.2,293.3-414.2,293.3z M-408.4,293.4
		c-2.1,0-3.8-1.7-3.8-3.8c0-2.1,1.7-3.8,3.8-3.8c1.1,0,2.1,0.5,2.8,1.2l-4.6,4.8c1.2,1,2.9,0.9,3.9-0.3l0.7,0.6
		C-406.3,293-407.3,293.4-408.4,293.4z M-408.4,286.7c-1.6,0-2.8,1.3-2.8,2.9c0,0.5,0.1,1.1,0.4,1.5l3.8-4
		C-407.4,286.9-407.9,286.7-408.4,286.7z"/>
	<path class="st0" d="M-403.1,293.3l-0.5-1.4v-9.2h1v9.2l0.6,1.5H-403.1z M-400,284.6v-2h1v2H-400z M-400,293.3V286h1v7.3
		L-400,293.3C-400,293.3-400,293.3-400,293.3z M-390.9,293.3V289c0-1.2-1-2.3-2.3-2.3c-1.2,0-2.3,1-2.3,2.3v4.3h-1v-5.6l-0.7-1.8h1
		l0.5,1.2c0.6-0.8,1.5-1.3,2.5-1.3c1.8,0,3.2,1.4,3.2,3.2v4.3H-390.9z"/>
	<g>
		<path class="st0" d="M-395.5,300.1l-0.1-0.4c-0.3,0.3-0.7,0.5-1.1,0.5c-1,0-1.7-0.8-1.8-1.8c0-1,0.8-1.8,1.8-1.8
			c0.4,0,0.8,0.2,1.1,0.4v-1.9h0.4v4.3l0.2,0.7C-395,300.1-395.5,300.1-395.5,300.1z M-395.7,297.6c-0.2-0.3-0.6-0.5-1.1-0.5
			c-0.7,0-1.3,0.6-1.3,1.3c0,0.7,0.6,1.3,1.3,1.3c0.4,0,0.8-0.2,1.1-0.5C-395.7,299.2-395.7,297.6-395.7,297.6z M-394.3,296.1v-0.9
			h0.4v0.9H-394.3z M-394.3,300.1v-3.4h0.4v3.4H-394.3z M-390.5,301.7h-0.6c0.3-0.2,0.6-0.6,0.6-1c0-0.6-0.5-1.1-1.1-1.1
			c-0.8,0-1.5-0.6-1.5-1.4c0-0.8,0.7-1.5,1.5-1.5c0.4,0,0.7,0.1,1,0.4l0.1-0.3h0.4l-0.2,0.7c0.1,0.2,0.2,0.5,0.2,0.7
			c0,0.5-0.3,1-0.7,1.2c0.5,0.2,0.8,0.8,0.8,1.3C-390.1,301-390.2,301.4-390.5,301.7z M-391.6,297.1c-0.6,0-1,0.5-1,1
			c0,0.6,0.5,1,1,1c0.6,0,1-0.5,1-1C-390.6,297.5-391.1,297.1-391.6,297.1z M-389.4,296.1v-0.9h0.4v0.9H-389.4z M-389.4,300.1v-3.4
			h0.4v3.4H-389.4z M-387.2,297.1v2l0.4,1h-0.5l-0.4-1v-2h-0.8v-0.4h0.8v-1.6h0.4v1.6h0.8v0.4L-387.2,297.1
			C-387.2,297.1-387.2,297.1-387.2,297.1z M-383.2,300.1l-0.1-0.4c-0.3,0.3-0.7,0.5-1.1,0.5c-1,0-1.8-0.8-1.8-1.8
			c0-1,0.8-1.8,1.8-1.8c0.4,0,0.8,0.2,1.1,0.4v-0.3h0.4v2.8l0.2,0.7C-382.8,300.1-383.2,300.1-383.2,300.1z M-383.5,297.6
			c-0.2-0.3-0.6-0.5-1.1-0.5c-0.7,0-1.3,0.6-1.3,1.3c0,0.7,0.6,1.3,1.3,1.3c0.4,0,0.8-0.2,1.1-0.5
			C-383.5,299.2-383.5,297.6-383.5,297.6z M-381.8,300.1l-0.2-0.7v-4.3h0.4v4.3l0.3,0.7L-381.8,300.1L-381.8,300.1z"/>
	</g>
	<path class="st0" d="M-382.6,293.3l-2.8-4.1l-1.5,1.8v2.3h-1v-10.6h1v7l3.1-3.7h1.2l-2.1,2.4l3.3,4.8H-382.6z M-414.4,272.1
		l-0.2-0.1l0.2-0.1c1.8-1,3-3.1,3-5.2c0-1.1-0.3-2.2-0.8-3.1l0-0.1l1-2.7h-1.5l-0.5,1.5l-0.2-0.1c-1.1-1-2.5-1.6-4-1.6
		c-3.4,0-6.2,2.7-6.2,6.1c0,3.4,2.8,6.1,6.1,6.1c2.6,0,4.7,2.2,4.7,4.9c0,1.8-0.7,3.3-2,4.2h2.2c0.9-1.1,1.4-2.5,1.4-4.2
		C-411.1,275.3-412.4,273.1-414.4,272.1z M-422,266.6c0-2.5,2.1-4.7,4.5-4.7c2.5,0,4.5,2.1,4.5,4.7c0,2.6-2,4.6-4.5,4.6
		C-420,271.3-422,269.2-422,266.6z"/>
</g>
</svg>
